<svg width="111" height="124" viewBox="0 0 111 124" fill="none" xmlns="http://www.w3.org/2000/svg">
<path d="M60.7929 1.25795C57.8814 -0.419317 53.1218 -0.419317 50.2231 1.25795L5.79453 26.8644C2.87981 28.5417 0.5 32.6592 0.5 36.017V87.2492C0.5 90.6038 2.87981 94.7245 5.79453 96.405L50.2103 122.018C53.1218 123.695 57.8814 123.695 60.7801 122.018L105.212 96.4018C108.12 94.7213 110.5 90.607 110.5 87.246V36.0234C110.5 32.6656 108.12 28.5481 105.212 26.8709L60.7929 1.25795Z" fill="white"/>
<path d="M59.88 12.4166C57.4705 11.0356 53.5315 11.0356 51.1326 12.4166L14.3641 33.5006C11.9519 34.8817 9.98242 38.272 9.98242 41.0367V83.2206C9.98242 85.9827 11.9519 89.3757 14.3641 90.7594L51.122 111.849C53.5315 113.23 57.4705 113.23 59.8694 111.849L96.6405 90.7567C99.0474 89.373 101.017 85.9854 101.017 83.218V41.042C101.017 38.2773 99.0474 34.887 96.6405 33.5059L59.88 12.4166Z" fill="#87F96E"/>
<path style="mix-blend-mode:overlay" d="M59.88 12.4166C57.4705 11.0356 53.5315 11.0356 51.1326 12.4166L14.3641 33.5006C11.9519 34.8817 9.98242 38.272 9.98242 41.0367V83.2206C9.98242 85.9827 11.9519 89.3757 14.3641 90.7594L51.122 111.849C53.5315 113.23 57.4705 113.23 59.8694 111.849L96.6405 90.7567C99.0474 89.373 101.017 85.9854 101.017 83.218V41.042C101.017 38.2773 99.0474 34.887 96.6405 33.5059L59.88 12.4166Z" fill="url(#paint0_linear)"/>
<path d="M59.1511 33.723C59.1511 31.9311 57.6985 30.4785 55.9066 30.4785C54.1147 30.4785 52.6621 31.9311 52.6621 33.723V93.0546C52.6621 94.8465 54.1147 96.2991 55.9066 96.2991C57.6985 96.2991 59.1511 94.8465 59.1511 93.0546V33.723Z" fill="#062F4F"/>
<path d="M84.6606 62.4429C84.2322 61.7058 83.5295 61.1682 82.7059 60.9477C81.8824 60.7272 81.0051 60.8416 80.2657 61.266L58.9961 73.5469V80.9689L83.4837 66.8325C84.2193 66.4042 84.7559 65.7024 84.9763 64.8801C85.1968 64.0579 85.0833 63.1818 84.6606 62.4429Z" fill="#062F4F"/>
<path d="M26.9805 62.8882C27.4089 62.1511 28.1116 61.6135 28.9351 61.393C29.7587 61.1725 30.636 61.2869 31.3754 61.7113L52.645 73.9922V81.4143L28.1574 67.2778C27.4217 66.8495 26.8852 66.1477 26.6647 65.3254C26.4443 64.5032 26.5578 63.6271 26.9805 62.8882Z" fill="#062F4F"/>
<path d="M84.6606 45.7222C84.2322 44.9851 83.5295 44.4475 82.7059 44.227C81.8824 44.0065 81.0051 44.1209 80.2657 44.5453L58.9961 56.8235V64.2456L83.4837 50.1171C84.2208 49.6887 84.7583 48.986 84.9789 48.1625C85.1994 47.3389 85.085 46.4616 84.6606 45.7222Z" fill="#062F4F"/>
<path d="M26.9792 46.1685C27.4076 45.4315 28.1101 44.8939 28.9335 44.6729C29.7569 44.4519 30.6342 44.5655 31.3741 44.9889L52.6437 57.2698V64.6919L28.1561 50.5529C27.4213 50.125 26.8853 49.4242 26.6649 48.603C26.4445 47.7818 26.5574 46.9068 26.9792 46.1685Z" fill="#062F4F"/>
<defs>
<linearGradient id="paint0_linear" x1="55.501" y1="11.3802" x2="55.501" y2="112.885" gradientUnits="userSpaceOnUse">
<stop stop-color="white"/>
<stop offset="0.98" stop-color="#389E20"/>
<stop offset="1"/>
</linearGradient>
</defs>
</svg>
